<svg width="28" height="28" viewBox="0 0 28 28" fill="none" xmlns="http://www.w3.org/2000/svg">
<path d="M9.7539 0.920933C6.95626 1.89146 4.54359 3.73355 2.87025 6.17663C1.19692 8.6197 0.351129 11.535 0.457115 14.4943C0.563102 17.4536 1.61528 20.3009 3.4591 22.618C5.30292 24.9351 7.84119 26.5999 10.7011 27.3678C13.0197 27.9661 15.4489 27.9924 17.7798 27.4444C19.8915 26.9701 21.8437 25.9555 23.4455 24.5C25.1125 22.9389 26.3225 20.9529 26.9455 18.7556C27.6225 16.3661 27.743 13.8533 27.2976 11.41H14.2776V16.8109H21.818C21.6673 17.6723 21.3443 18.4945 20.8685 19.2282C20.3926 19.9619 19.7736 20.592 19.0486 21.0809C18.1278 21.69 17.0899 22.0998 16.0014 22.2841C14.9097 22.4871 13.79 22.4871 12.6983 22.2841C11.5918 22.0553 10.5451 21.5986 9.62484 20.9431C8.14641 19.8966 7.03631 18.4098 6.45296 16.695C5.85974 14.948 5.85974 13.0541 6.45296 11.3072C6.86821 10.0827 7.55466 8.96773 8.46109 8.04562C9.49838 6.971 10.8116 6.20286 12.2567 5.82548C13.7019 5.44809 15.223 5.47603 16.6533 5.90625C17.7706 6.24923 18.7923 6.84848 19.637 7.65625C20.4872 6.81041 21.336 5.96239 22.1833 5.11218C22.6208 4.655 23.0976 4.21968 23.5286 3.75156C22.2392 2.55166 20.7257 1.618 19.0748 1.00406C16.0686 -0.0875264 12.7792 -0.116862 9.7539 0.920933Z" fill="white"/>
<path d="M9.75383 0.920928C12.7788 -0.117572 16.0682 -0.0890089 19.0748 1.00187C20.7259 1.61997 22.2387 2.55814 23.5263 3.76249C23.0888 4.23062 22.6273 4.66812 22.181 5.12312C21.3323 5.97041 20.4842 6.81478 19.637 7.65624C18.7922 6.84848 17.7705 6.24922 16.6532 5.90624C15.2234 5.47452 13.7023 5.44496 12.2568 5.8208C10.8113 6.19665 9.49726 6.96338 8.45883 8.03687C7.5524 8.95897 6.86595 10.0739 6.4507 11.2984L1.91602 7.78749C3.53916 4.56872 6.34953 2.10661 9.75383 0.920928Z" fill="#E33629"/>
<path d="M0.71265 11.2656C0.956384 10.0577 1.36103 8.88788 1.91578 7.78751L6.45046 11.3072C5.85724 13.0541 5.85724 14.9481 6.45046 16.695C4.93963 17.8617 3.42807 19.0342 1.91578 20.2125C0.527042 17.4482 0.103503 14.2986 0.71265 11.2656Z" fill="#F8BD00"/>
<path d="M14.2773 11.4078H27.2973C27.7427 13.8511 27.6222 16.364 26.9452 18.7534C26.3222 20.9507 25.1122 22.9367 23.4452 24.4978C21.9817 23.3559 20.5117 22.2228 19.0483 21.0809C19.7738 20.5915 20.3931 19.9607 20.869 19.2262C21.3448 18.4917 21.6675 17.6687 21.8177 16.8066H14.2773C14.2752 15.0084 14.2773 13.2081 14.2773 11.4078Z" fill="#587DBD"/>
<path d="M1.91406 20.2125C3.42635 19.0458 4.93792 17.8733 6.44875 16.695C7.03327 18.4104 8.14495 19.8973 9.625 20.9431C10.5481 21.5956 11.5971 22.0485 12.705 22.2731C13.7967 22.4761 14.9164 22.4761 16.0081 22.2731C17.0966 22.0889 18.1346 21.6791 19.0553 21.07C20.5187 22.2119 21.9888 23.345 23.4522 24.4869C21.8507 25.9432 19.8984 26.9585 17.7866 27.4334C15.4556 27.9814 13.0264 27.9552 10.7078 27.3569C8.87404 26.8673 7.16116 26.0041 5.67656 24.8216C4.1052 23.574 2.82178 22.0018 1.91406 20.2125Z" fill="#319F43"/>
</svg>
